<?xml version="1.0" encoding="UTF-8"?>
<svg id="Calque_1" data-name="Calque 1" xmlns="http://www.w3.org/2000/svg" viewBox="0 0 278.4 307.76">
  <defs>
    <style>
      .cls-1 {
        fill: #1d1d1b;
      }
    </style>
  </defs>
  <g>
    <path class="cls-1" d="M116.56,202.91v3.85h9.36v11.28h-9.36v14.8h-13.27v-40.89h24.93v10.96h-11.66Z"/>
    <path class="cls-1" d="M151.79,233.95c-11.31,0-21.58-8.22-21.58-20.84s10.26-20.84,21.58-20.84,21.58,8.22,21.58,20.84-10.26,20.84-21.58,20.84ZM151.79,204.08c-4.58,0-8.16,4.2-8.16,9.15s3.59,9.03,8.16,9.03,8.16-4.08,8.16-9.03-3.59-9.15-8.16-9.15Z"/>
    <path class="cls-1" d="M198.97,232.83l-8.72-13.73h-.49v13.73h-12.55v-39.45h16.94c7.98,0,13.6,5.5,13.6,12.86,0,3.96-2.29,8.1-5.13,9.58l11.62,17h-15.27ZM192.41,203.71h-2.66v5.69h2.66c1.42,0,3.03-.93,3.03-2.84s-1.61-2.84-3.03-2.84Z"/>
    <path class="cls-1" d="M233.1,204.02v28.81h-13.17v-28.87h-10.02v-10.57h33.14v10.63h-9.95Z"/>
    <path class="cls-1" d="M93.37,284.77l-2.23-7.54h-9.77l-2.29,7.54h-12.18l14.22-39.45h11.07l14.22,39.45h-13.05ZM86.94,262.14c-.25-.8-.49-1.67-.68-2.66h-.12c-.19.99-.31,1.92-.56,2.66l-1.55,5.19h4.39l-1.48-5.19Z"/>
    <path class="cls-1" d="M126.39,271.04h-5.07v13.73h-12.55v-39.45h17.62c7.98,0,13.6,5.5,13.6,12.86s-5.63,12.86-13.6,12.86ZM124.65,255.65h-3.34v5.69h3.34c1.42,0,3.03-.93,3.03-2.84s-1.61-2.84-3.03-2.84Z"/>
    <path class="cls-1" d="M161.81,284.77l-2.23-7.54h-9.77l-2.29,7.54h-12.18l14.22-39.45h11.07l14.22,39.45h-13.05ZM155.38,262.14c-.25-.8-.49-1.67-.68-2.66h-.12c-.19.99-.31,1.92-.56,2.66l-1.55,5.19h4.39l-1.48-5.19Z"/>
    <path class="cls-1" d="M203.92,257.69c-1.79-.99-4.02-1.61-6.62-1.61-6.43,0-9.71,4.58-9.71,9.15s3.34,9.27,10.57,9.27c1.98,0,4.76-.43,6.43-1.24l-1.11,11.19c-1.73.68-4.64,1.11-7.67,1.11-10.57,0-21.39-7.05-21.39-20.53s10.82-20.53,21.39-20.53c4.39,0,8.35.87,10.63,2.23l-2.54,10.94Z"/>
    <path class="cls-1" d="M233.6,284.77v-14.04h-10.14v14.04h-13.17v-39.45h13.17v14.04h10.14v-14.04h13.17v39.45h-13.17Z"/>
    <path class="cls-1" d="M251.46,284.77v-39.45h24.05v10.57h-11.25v3.71h9.03v10.88h-9.03v3.71h12.74v10.57h-25.54Z"/>
  </g>
  <g>
    <path class="cls-1" d="M75.52,299.81h-7.23v5.22h8.28v.88h-9.5v-12.61h9.45v.88h-8.23v4.74h7.23v.88ZM72.89,290.13h1.52l.03.05-2.57,2.25h-1.11l2.13-2.3Z"/>
    <path class="cls-1" d="M91.69,300.64c0,.95-.19,1.8-.56,2.56-.37.76-.91,1.38-1.6,1.86l2.58,2.04-.86.65-2.72-2.16c-.41.17-.83.29-1.28.38-.45.08-.92.13-1.42.13-1.76,0-3.16-.5-4.21-1.51-1.05-1-1.57-2.32-1.57-3.95v-2.05c0-1.62.52-2.94,1.57-3.95,1.04-1.01,2.45-1.52,4.21-1.52s3.21.51,4.28,1.52c1.06,1.01,1.6,2.33,1.6,3.95v2.05ZM90.47,298.58c0-1.36-.41-2.46-1.23-3.3s-1.96-1.25-3.42-1.25-2.54.42-3.34,1.25-1.2,1.93-1.2,3.3v2.07c0,1.38.4,2.48,1.2,3.31.8.83,1.92,1.25,3.34,1.25s2.6-.42,3.42-1.25,1.22-1.94,1.22-3.32v-2.07Z"/>
    <path class="cls-1" d="M106.94,293.31v8.55c0,1.37-.5,2.43-1.5,3.15s-2.3,1.09-3.91,1.09-2.87-.37-3.85-1.1c-.98-.73-1.47-1.78-1.47-3.15v-8.55h1.24v8.54c0,1.07.38,1.9,1.13,2.49.76.59,1.74.88,2.96.88s2.24-.29,3.02-.87c.78-.58,1.17-1.41,1.17-2.49v-8.54h1.23Z"/>
    <path class="cls-1" d="M113.62,305.92h-1.24v-12.61h1.24v12.61Z"/>
    <path class="cls-1" d="M129.08,294.19h-5.16v11.73h-1.24v-11.73h-5.16v-.88h11.57v.88Z"/>
    <path class="cls-1" d="M140.27,302.4h-6.88l-1.55,3.52h-1.28l5.7-12.61h1.17l5.66,12.61h-1.28l-1.55-3.52ZM133.81,301.48h6.06l-2.99-6.83h-.06l-3.01,6.83Z"/>
    <path class="cls-1" d="M155.63,294.19h-5.16v11.73h-1.24v-11.73h-5.16v-.88h11.57v.88Z"/>
    <path class="cls-1" d="M161.07,305.92h-1.24v-12.61h1.24v12.61Z"/>
    <path class="cls-1" d="M177.74,300.64c0,1.63-.53,2.95-1.59,3.95-1.06,1-2.49,1.51-4.27,1.51s-3.16-.5-4.21-1.51c-1.05-1-1.57-2.32-1.57-3.95v-2.05c0-1.62.52-2.94,1.57-3.95,1.04-1.01,2.45-1.52,4.21-1.52s3.21.51,4.28,1.52c1.06,1.01,1.6,2.33,1.6,3.95v2.05ZM176.51,298.58c0-1.36-.41-2.46-1.23-3.3s-1.96-1.25-3.42-1.25-2.54.42-3.34,1.25-1.2,1.93-1.2,3.3v2.07c0,1.38.4,2.48,1.2,3.31.8.83,1.92,1.25,3.34,1.25s2.6-.42,3.42-1.25,1.22-1.94,1.22-3.32v-2.07Z"/>
    <path class="cls-1" d="M193.53,305.92h-1.23l-8.53-10.85h-.06v10.85h-1.24v-12.61h1.24l8.52,10.83h.06v-10.83h1.23v12.61Z"/>
    <path class="cls-1" d="M210.13,303.79l.31.84h.06l.31-.84,4.73-10.48h1.41l-5.88,12.61h-1.22l-5.88-12.61h1.41l4.74,10.48Z"/>
    <path class="cls-1" d="M229.83,299.81h-7.59v5.22h8.69v.88h-9.98v-12.61h9.93v.88h-8.64v4.74h7.59v.88Z"/>
    <path class="cls-1" d="M246.91,305.92h-1.29l-8.95-10.85h-.06v10.85h-1.3v-12.61h1.3l8.95,10.83h.06v-10.83h1.29v12.61Z"/>
    <path class="cls-1" d="M263.48,301.98l.02.05c-.14,1.27-.7,2.26-1.69,2.98s-2.31,1.09-3.97,1.09c-1.75,0-3.17-.51-4.25-1.52s-1.61-2.33-1.61-3.94v-2.05c0-1.61.54-2.92,1.61-3.94,1.08-1.02,2.49-1.53,4.25-1.53s3,.35,3.98,1.07c.98.71,1.54,1.71,1.68,3l-.02.05h-1.21c-.17-1.05-.62-1.85-1.35-2.4-.73-.55-1.75-.83-3.08-.83s-2.49.43-3.32,1.28c-.83.85-1.25,1.95-1.25,3.28v2.07c0,1.35.42,2.45,1.25,3.3.83.85,1.94,1.28,3.32,1.28s2.36-.27,3.09-.81c.73-.54,1.18-1.35,1.34-2.43h1.21Z"/>
    <path class="cls-1" d="M277.29,299.81h-7.59v5.22h8.69v.88h-9.98v-12.61h9.93v.88h-8.64v4.74h7.59v.88Z"/>
  </g>
  <g>
    <path class="cls-1" d="M243.14,162.04c-.74-.7-1.91-.68-2.62.06-16.28,17.02-39.22,27.62-64.64,27.62-49.02,0-88.83-39.44-89.43-88.31-.61-49.45,39.98-90.56,89.43-90.56,9.17,0,18.02,1.38,26.35,3.94,2.03-2.01,4.89-4.88,7.2-7.25C197.71,2.62,184.83-.06,171.31,0c-54.03.23-97.44,43.83-97.44,97.86,0,54.05,43.82,97.86,97.87,97.86,28.2,0,53.63-11.93,71.48-31.03.71-.76.68-1.94-.08-2.65h0Z"/>
    <path class="cls-1" d="M77.42,138.17S61.36,99.25,0,115.78c0,0,19.69,6.33,27.96,23.39,8.26,17.06,26.02,21.8,58.9,14.77,0,0-21.45-28.13-59.96-34.29,0,0,22.62-4.81,50.52,18.52Z"/>
    <path class="cls-1" d="M72.27,111.69s6.15-41.8-38.51-49.01l2.64,16.88s3.34,26.55,32.53,36.75c0,0-9.14-24.62-20.22-36.75,0,0,15.47,4.66,23.56,32.13Z"/>
    <path class="cls-1" d="M205.19,169.93s7.03-32.7-40.79-67.52c0,0-43.02-33.29-23.8-75.02,0,0-45.48,22.98-45.01,82.76.47,59.78,66.11,77.13,96.82,70.8,0,0,1.73-17.95-42.81-48.05-8.17-5.52-15.24-12.56-20.53-20.88-6.67-10.49-11.85-24.85-5.93-40.32,0,0-1.53,30.71,28.48,49.23,30.01,18.52,49.47,39.39,53.57,49Z"/>
    <path class="cls-1" d="M178.47,102.33s-49.82-36.25-30.13-70.71c0,0,12.68-20.63,57.21-11.96,0,0,2.01-10.11,18.25-13.33,1.81-.36,3.65-.53,5.5-.61,2.49-.1,7.89-.79,14.42-4.34,0,0-5.01,14.54-23.54,26.02,0,0,7.27-1.17,13.13-6.56l18.4,69.63,8.91,25.85s7.5,23.15-12.89,29.25c-20.4,6.1-23.44-11.49-20.87-20.16l-24.02-23.91s-40.69-16.65-8.1-55.09c0,0-31.88,9.2-16.29,55.94Z"/>
  </g>
</svg>
